# xmcd
#
# Track frame offsets:
#	150
#	11077
#	23158
#	34588
#	44968
#	59725
#	74128
#	86060
#	98149
#	110406
#	128486
#	138980
#	148743
#	160362
#	166481
#	182404
#	194218
#	207621
#	222574
#	235993
#
# Disc length: 3284 seconds
#
# Revision: 1
# Processed by: cddbd v1.5.1PL2 Copyright (c) Steve Scherf et al.
# Submitted via: audiograbber 1.83.01
#
DISCID=400cd214
DTITLE=Brook Benton - Endlessly
DYEAR=1900
DGENRE=
TTITLE0=Endlessly
TTITLE1=A Million Miles From Nowhere
TTITLE2=It's Just A Matter Of Time
TTITLE3=Lie To Me
TTITLE4=Chains Of Love
TTITLE5=For My Baby
TTITLE6=Hotel Happyness
TTITLE7=Kiddio
TTITLE8=My True Conffession
TTITLE9=Rainy Night In Georgia
TTITLE10=Send For Me 
TTITLE11=So Close
TTITLE12=So Many Ways
TTITLE13=Spanish Harlem
TTITLE14=Take Good Care Of Her
TTITLE15=Think Twice 
TTITLE16=Try A Little Tenderness
TTITLE17=Valley Of Tears
TTITLE18=Will You Still Love Me Tomorrow
TTITLE19=Fools Rush In
EXTD=Oldies
EXTT0=
EXTT1=
EXTT2=
EXTT3=
EXTT4=
EXTT5=
EXTT6=
EXTT7=
EXTT8=
EXTT9=
EXTT10=
EXTT11=
EXTT12=
EXTT13=
EXTT14=
EXTT15=
EXTT16=
EXTT17=
EXTT18=
EXTT19=
PLAYORDER=
